Coordinates
datacolumns 11
datarows 48
range 1.05 1.52
inDegrees=yes
Units are S.I. units (second, meters, Newtons, ...)
If the header above contains a line with 'inDegrees', this indicates whether rotational values are in degrees (yes) or radians (no).
endheader
time	pelvis_tilt	pelvis_tx	pelvis_ty	hip_flexion_l	hip_flexion_r	knee_angle_l	knee_angle_r	ankle_angle_l	ankle_angle_r	lumbar
1.05	-24.42931695	0.19646748	0.89029603	58.64776579	58.64776579	-40.44418811	-40.44418811	8.00687535	8.00687535	-23.51987271
1.06	-24.1785903	0.19923984	0.89375881	57.71422032	57.71422032	-39.64445203	-39.64445203	7.89673988	7.89673988	-23.12645565
1.07	-24.07868118	0.20194279	0.89681045	56.95561904	56.95561904	-38.8581783	-38.8581783	7.874903	7.874903	-22.51411597
1.08	-23.62816352	0.20498703	0.90058672	55.79545887	55.79545887	-38.06202798	-38.06202798	7.71903765	7.71903765	-22.363852
1.09	-23.55744021	0.20776803	0.90343594	55.08067719	55.08067719	-37.30388928	-37.30388928	7.7218556	7.7218556	-21.6978803
1.1	-23.0268974	0.21096302	0.90724344	53.8298325	53.8298325	-36.5057733	-36.5057733	7.57172176	7.57172176	-21.61865291
1.11	-22.71882346	0.21401513	0.91048309	52.8434978	52.8434978	-35.74349751	-35.74349751	7.50950776	7.50950776	-21.2365629
1.12	-22.40565924	0.21710643	0.91365648	51.85859309	51.85859309	-34.98878648	-34.98878648	7.45328061	7.45328061	-20.85164236
1.13	-22.08859071	0.22022902	0.91675824	50.87669625	50.87669625	-34.2478508	-34.2478508	7.4009531	7.4009531	-20.45964053
1.14	-21.80876855	0.22335825	0.91971856	49.93045642	49.93045642	-33.49604848	-33.49604848	7.36722394	7.36722394	-20.00887276
1.15	-21.44134685	0.22656984	0.9227461	48.92394134	48.92394134	-32.81061043	-32.81061043	7.30835481	7.30835481	-19.65747388
1.16	-21.10683943	0.22979687	0.9256425	47.94572071	47.94572071	-32.1096883	-32.1096883	7.26524856	7.26524856	-19.25236543
1.17	-20.76673212	0.23305474	0.92846787	46.97160239	46.97160239	-31.4304132	-31.4304132	7.22043122	7.22043122	-18.84650036
1.18	-20.41296751	0.23636208	0.93125095	45.98614655	45.98614655	-30.75864819	-30.75864819	7.16815879	7.16815879	-18.4474788
1.19	-20.05555084	0.2396964	0.93396266	45.00139292	45.00139292	-30.08960372	-30.08960372	7.10730405	7.10730405	-18.04738588
1.2	-19.69272268	0.24306385	0.93659096	44.01766579	44.01766579	-29.43622974	-29.43622974	7.03187141	7.03187141	-17.64778549
1.21	-19.32121435	0.24646034	0.93917805	43.02927978	43.02927978	-28.78649948	-28.78649948	6.93889748	6.93889748	-17.25659248
1.22	-18.94113513	0.24988657	0.94168825	42.03585555	42.03585555	-28.14359597	-28.14359597	6.82422188	6.82422188	-16.87378939
1.23	-18.55724546	0.25332799	0.9441353	41.04525775	41.04525775	-27.50874465	-27.50874465	6.69330707	6.69330707	-16.49679674
1.24	-18.16943772	0.25678131	0.94650151	40.05833504	40.05833504	-26.88141695	-26.88141695	6.54156345	6.54156345	-16.12538774
1.25	-17.77961592	0.26023794	0.94879113	39.07775538	39.07775538	-26.26482009	-26.26482009	6.37495687	6.37495687	-15.76056094
1.26	-17.68829117	0.2634896	0.95033976	38.48166528	38.48166528	-25.7488193	-25.7488193	6.35571921	6.35571921	-15.01871661
1.27	-16.99547435	0.26713164	0.95312702	37.14193912	37.14193912	-25.06647247	-25.06647247	6.01005427	6.01005427	-15.05297841
1.28	-16.60350509	0.27055975	0.95517028	36.19065265	36.19065265	-24.48780855	-24.48780855	5.81890061	5.81890061	-14.71014599
1.29	-16.21489979	0.27396878	0.95712243	35.25258521	35.25258521	-23.92009686	-23.92009686	5.63033569	5.63033569	-14.37078605
1.3	-15.82499291	0.27734534	0.95900042	34.3303562	34.3303562	-23.37770928	-23.37770928	5.43839712	5.43839712	-14.04357312
1.31	-15.44211457	0.28069961	0.96078705	33.4262418	33.4262418	-22.85105524	-22.85105524	5.25664301	5.25664301	-13.71592065
1.32	-15.05430259	0.28401327	0.96250071	32.52634772	32.52634772	-22.33570081	-22.33570081	5.07848286	5.07848286	-13.40587385
1.33	-14.67733941	0.28728606	0.96412638	31.65356573	31.65356573	-21.84466574	-21.84466574	4.91301774	4.91301774	-13.09432024
1.34	-14.30844618	0.29050741	0.96566842	30.80192645	30.80192645	-21.37230387	-21.37230387	4.75609853	4.75609853	-12.78472128
1.35	-13.94788755	0.29368228	0.96713389	29.96848603	29.96848603	-20.91200233	-20.91200233	4.60342599	4.60342599	-12.47974114
1.36	-13.60084492	0.29680055	0.96852013	29.15951529	29.15951529	-20.46341092	-20.46341092	4.45358042	4.45358042	-12.17438648
1.37	-13.2714584	0.29985481	0.96982545	28.378368	28.378368	-20.02350791	-20.02350791	4.30742472	4.30742472	-11.86533411
1.38	-12.96067151	0.30283721	0.97105503	27.62704925	27.62704925	-19.59432794	-19.59432794	4.16528895	4.16528895	-11.55398187
1.39	-12.67461045	0.30575419	0.97219555	26.90865966	26.90865966	-19.17071105	-19.17071105	4.04267423	4.04267423	-11.23107272
1.4	-12.40472485	0.30859586	0.97327641	26.21563018	26.21563018	-18.75634646	-18.75634646	3.93609311	3.93609311	-10.91129041
1.41	-12.33220581	0.31126488	0.97393145	25.77533145	25.77533145	-18.40580087	-18.40580087	3.9327546	3.9327546	-10.36544123
1.42	-11.89573414	0.31407958	0.97530434	24.87978956	24.87978956	-17.95301157	-17.95301157	3.78993805	3.78993805	-10.29762109
1.43	-11.66787971	0.31669291	0.97622403	24.24948791	24.24948791	-17.5569905	-17.5569905	3.75145843	3.75145843	-9.98961645
1.44	-11.62873978	0.31916133	0.97673675	23.86562134	23.86562134	-17.23034035	-17.23034035	3.78184021	3.78184021	-9.46200128
1.45	-11.21552951	0.32178374	0.97798379	23.00485893	23.00485893	-16.78458486	-16.78458486	3.72457021	3.72457021	-9.41897425
1.46	-11.1911579	0.32409605	0.97841969	22.6465602	22.6465602	-16.46407666	-16.46407666	3.7597987	3.7597987	-8.91622985
1.47	-10.79186301	0.32649833	0.97958461	21.82796437	21.82796437	-16.04434468	-16.04434468	3.71392896	3.71392896	-8.90549537
1.48	-10.78102534	0.32873841	0.97995604	21.47056313	21.47056313	-15.68910214	-15.68910214	3.74817002	3.74817002	-8.40790104
1.49	-10.35720207	0.3311146	0.9811263	20.59899438	20.59899438	-15.21446703	-15.21446703	3.66511525	3.66511525	-8.4371225
1.5	-10.16286314	0.33323448	0.98181479	20.02707455	20.02707455	-14.81197307	-14.81197307	3.62874918	3.62874918	-8.21960114
1.51	-9.96548571	0.33531306	0.98248993	19.44597431	19.44597431	-14.39253731	-14.39253731	3.59118228	3.59118228	-8.01028334
1.52	-9.77245496	0.3373448	0.98313201	18.86609272	18.86609272	-13.96088975	-13.96088975	3.54916674	3.54916674	-7.80540379
